# This file uses centimeters as units for non-parametric coordinates.

mtllib bouton.mtl
g default
v 0.167819 -0.041452 -0.048935
v 0.146146 -0.047471 -0.093080
v 0.112390 -0.056845 -0.128114
v 0.069855 -0.068659 -0.150606
v 0.022705 -0.081753 -0.158357
v -0.024445 -0.094848 -0.150606
v -0.066980 -0.106661 -0.128114
v -0.100736 -0.116036 -0.093080
v -0.122409 -0.122055 -0.048935
v -0.129876 -0.124129 -0.000000
v -0.122409 -0.122055 0.048935
v -0.100736 -0.116036 0.093080
v -0.066980 -0.106661 0.128113
v -0.024445 -0.094848 0.150606
v 0.022705 -0.081753 0.158357
v 0.069855 -0.068659 0.150606
v 0.112390 -0.056845 0.128113
v 0.146146 -0.047471 0.093080
v 0.167819 -0.041452 0.048935
v 0.175286 -0.039378 -0.000000
v 0.022705 -0.081753 -0.000000
v -0.022618 0.192862 -0.000000
v 0.128365 0.199279 -0.048935
v 0.121881 0.213457 -0.047596
v 0.109222 0.222098 -0.043977
v 0.094133 0.222640 -0.039150
v 0.106545 0.193901 -0.093080
v 0.100692 0.208180 -0.090553
v 0.089713 0.217162 -0.083713
v 0.076811 0.218222 -0.074553
v 0.072561 0.185520 -0.128114
v 0.067673 0.199954 -0.124683
v 0.059280 0.209461 -0.115372
v 0.049776 0.211327 -0.102833
v 0.029738 0.174959 -0.150606
v 0.026032 0.189576 -0.146645
v 0.020821 0.199726 -0.135858
v 0.015550 0.202597 -0.121231
v -0.017731 0.163252 -0.158357
v -0.020175 0.178057 -0.154273
v -0.021964 0.188895 -0.143117
v -0.022618 0.192862 -0.127877
v -0.065203 0.151556 -0.150606
v -0.066430 0.166527 -0.146798
v -0.064906 0.178024 -0.136359
v -0.061028 0.183066 -0.121997
v -0.108028 0.141005 -0.128114
v -0.108198 0.156114 -0.124931
v -0.103779 0.168181 -0.116183
v -0.095885 0.174175 -0.104072
v -0.142015 0.132630 -0.093080
v -0.141372 0.147839 -0.090801
v -0.134721 0.160345 -0.084524
v -0.123698 0.167082 -0.075790
v -0.163835 0.127250 -0.048935
v -0.162686 0.142520 -0.047749
v -0.154641 0.155300 -0.044478
v -0.141646 0.162504 -0.039913
v -0.171353 0.125392 -0.000000
v -0.170038 0.140683 -0.000000
v -0.161534 0.153553 -0.000000
v -0.147886 0.160912 -0.000000
v -0.163835 0.127250 0.048935
v -0.162701 0.142516 0.047754
v -0.154696 0.155286 0.044496
v -0.141756 0.162476 0.039949
v -0.142015 0.132630 0.093080
v -0.141395 0.147832 0.090818
v -0.134811 0.160323 0.084590
v -0.123878 0.167036 0.075924
v -0.108028 0.141005 0.128113
v -0.108221 0.156107 0.124965
v -0.103869 0.168158 0.116312
v -0.096067 0.174129 0.104330
v -0.065203 0.151556 0.150606
v -0.066445 0.166524 0.146846
v -0.064964 0.178009 0.136540
v -0.061142 0.183036 0.122360
v -0.017731 0.163252 0.158357
v -0.020175 0.178057 0.154328
v -0.021964 0.188895 0.143321
v -0.022618 0.192862 0.128286
v 0.029738 0.174958 0.150606
v 0.026048 0.189581 0.146695
v 0.020881 0.199741 0.136046
v 0.015669 0.202627 0.121607
v 0.072561 0.185520 0.128113
v 0.067699 0.199961 0.124720
v 0.059378 0.209486 0.115511
v 0.049971 0.211376 0.103109
v 0.106545 0.193901 0.093080
v 0.100719 0.208187 0.090573
v 0.089812 0.217188 0.083787
v 0.077008 0.218272 0.074700
v 0.128365 0.199279 0.048935
v 0.121898 0.213462 0.047602
v 0.109284 0.222114 0.043998
v 0.094256 0.222671 0.039190
v 0.135884 0.201128 -0.000000
v 0.129188 0.215274 -0.000000
v 0.115961 0.223803 -0.000000
v 0.100140 0.224172 -0.000000
vt 0.648603 0.107966
vt 0.626409 0.064408
vt 0.591842 0.029841
vt 0.548284 0.007647
vt 0.500000 -0.000000
vt 0.451716 0.007647
vt 0.408159 0.029841
vt 0.373591 0.064409
vt 0.351397 0.107966
vt 0.343750 0.156250
vt 0.351397 0.204534
vt 0.373591 0.248091
vt 0.408159 0.282659
vt 0.451716 0.304853
vt 0.500000 0.312500
vt 0.548284 0.304853
vt 0.591841 0.282659
vt 0.626409 0.248091
vt 0.648603 0.204534
vt 0.656250 0.156250
vt 0.500000 0.150000
vt 0.375000 0.312500
vt 0.387500 0.312500
vt 0.375000 0.645790
vt 0.400000 0.312500
vt 0.387500 0.646114
vt 0.400000 0.312521
vt 0.412500 0.312501
vt 0.400000 0.646608
vt 0.425000 0.312501
vt 0.412500 0.647224
vt 0.437500 0.312500
vt 0.425000 0.647904
vt 0.450000 0.312501
vt 0.437500 0.648595
vt 0.462500 0.312500
vt 0.450000 0.649213
vt 0.475000 0.312500
vt 0.462500 0.649697
vt 0.487500 0.312500
vt 0.475000 0.650004
vt 0.500000 0.312500
vt 0.487500 0.650104
vt 0.512500 0.312500
vt 0.500000 0.650004
vt 0.525000 0.312500
vt 0.512500 0.649697
vt 0.537500 0.312500
vt 0.525000 0.649213
vt 0.550000 0.312500
vt 0.537500 0.648595
vt 0.562500 0.312500
vt 0.550000 0.647904
vt 0.575000 0.312500
vt 0.562500 0.647225
vt 0.587500 0.312500
vt 0.575000 0.646608
vt 0.600000 0.312500
vt 0.587500 0.646114
vt 0.612500 0.312500
vt 0.600000 0.645795
vt 0.625000 0.312500
vt 0.612500 0.645676
vt 0.601248 0.916067
vt 0.573719 0.943982
vt 0.538866 0.962149
vt 0.500000 0.968723
vt 0.460888 0.962937
vt 0.425394 0.945264
vt 0.397072 0.917371
vt 0.378796 0.881979
vt 0.372442 0.842602
vt 0.378684 0.803185
vt 0.396889 0.767684
vt 0.425208 0.739647
vt 0.460772 0.721845
vt 0.500000 0.715984
vt 0.538987 0.722557
vt 0.573917 0.740793
vt 0.601448 0.768809
vt 0.619011 0.803837
vt 0.625003 0.842500
vt 0.618886 0.881129
vt 0.500000 0.837500
vt 0.625000 0.645793
vt 0.375000 0.669836
vt 0.625000 0.669837
vt 0.375000 0.688440
vt 0.648603 0.892034
vt 0.625000 0.688440
vt 0.387482 0.669558
vt 0.387500 0.688440
vt 0.626409 0.935591
vt 0.399975 0.669746
vt 0.400000 0.688440
vt 0.591841 0.970159
vt 0.412475 0.670146
vt 0.412500 0.688440
vt 0.548284 0.992353
vt 0.424979 0.670628
vt 0.425000 0.688440
vt 0.500000 1.000000
vt 0.437485 0.671121
vt 0.437500 0.688440
vt 0.451716 0.992353
vt 0.449992 0.671560
vt 0.450000 0.688440
vt 0.408159 0.970159
vt 0.462497 0.671901
vt 0.462500 0.688440
vt 0.373591 0.935591
vt 0.475001 0.672117
vt 0.475000 0.688440
vt 0.351397 0.892034
vt 0.487504 0.672190
vt 0.487500 0.688440
vt 0.343750 0.843750
vt 0.500006 0.672122
vt 0.500000 0.688440
vt 0.351397 0.795466
vt 0.512509 0.671909
vt 0.512500 0.688440
vt 0.373591 0.751909
vt 0.525013 0.671569
vt 0.525000 0.688440
vt 0.408159 0.717341
vt 0.537518 0.671128
vt 0.537500 0.688440
vt 0.451716 0.695147
vt 0.550022 0.670626
vt 0.550000 0.688440
vt 0.500000 0.687500
vt 0.562525 0.670120
vt 0.562500 0.688440
vt 0.548284 0.695147
vt 0.575023 0.669655
vt 0.575000 0.688440
vt 0.591842 0.717341
vt 0.587518 0.669295
vt 0.587500 0.688440
vt 0.626409 0.751908
vt 0.600009 0.669114
vt 0.600000 0.688440
vt 0.648603 0.795466
vt 0.612501 0.669219
vt 0.656250 0.843750
vt 0.612500 0.688440
vn 0.267591 -0.963533 -0.000003
vn 0.267594 -0.963532 0.000001
vn 0.267597 -0.963531 -0.000000
vn 0.267597 -0.963531 0.000000
vn 0.267596 -0.963531 0.000003
vn 0.267594 -0.963532 0.000000
vn 0.267600 -0.963530 0.000001
vn 0.267600 -0.963530 -0.000000
vn 0.267601 -0.963530 -0.000000
vn 0.267600 -0.963530 0.000001
vn 0.267600 -0.963530 0.000000
vn 0.267600 -0.963530 -0.000001
vn 0.267601 -0.963530 0.000000
vn 0.267600 -0.963530 0.000000
vn 0.267600 -0.963530 -0.000001
vn 0.267594 -0.963532 0.000000
vn 0.267596 -0.963531 -0.000003
vn 0.267597 -0.963531 -0.000000
vn 0.267591 -0.963533 0.000003
vn 0.267594 -0.963532 -0.000001
vn 0.267593 -0.963532 -0.000000
vn 0.938719 0.153873 -0.308431
vn 0.798781 0.131063 -0.587172
vn 0.792995 0.146240 -0.591415
vn 0.935145 0.169500 -0.311083
vn 0.580121 0.095326 -0.808933
vn 0.571613 0.109889 -0.813131
vn 0.303836 0.050010 -0.951411
vn 0.293140 0.063981 -0.953926
vn -0.002672 -0.000470 -0.999996
vn -0.014197 0.013082 -0.999814
vn -0.308612 -0.051072 -0.949816
vn -0.319233 -0.037640 -0.946928
vn -0.583426 -0.096707 -0.806388
vn -0.591691 -0.083143 -0.801866
vn -0.800317 -0.132845 -0.584675
vn -0.805716 -0.119019 -0.580222
vn -0.938869 -0.155986 -0.306911
vn -0.941976 -0.141928 -0.304199
vn -0.986469 -0.163947 -0.000000
vn -0.988712 -0.149825 -0.000004
vn -0.938869 -0.155986 0.306910
vn -0.941970 -0.141984 0.304192
vn -0.800317 -0.132845 0.584675
vn -0.805700 -0.119127 0.580221
vn -0.583426 -0.096707 0.806388
vn -0.591664 -0.083293 0.801871
vn -0.308614 -0.051072 0.949815
vn -0.319196 -0.037819 0.946934
vn -0.002672 -0.000470 0.999996
vn -0.014150 0.012891 0.999817
vn 0.303838 0.050011 0.951410
vn 0.293190 0.063797 0.953923
vn 0.580121 0.095326 0.808933
vn 0.571653 0.109730 0.813125
vn 0.798781 0.131063 0.587172
vn 0.793024 0.146122 0.591406
vn 0.938719 0.153873 0.308430
vn 0.935161 0.169438 0.311071
vn 0.986839 0.161706 0.000000
vn 0.984127 0.177469 -0.000005
vn -0.187203 0.982121 -0.019830
vn -0.196493 0.979796 -0.037288
vn -0.247139 0.968980 0.000001
vn -0.210615 0.976261 -0.050561
vn -0.227851 0.971944 -0.058390
vn -0.246260 0.967332 -0.060213
vn -0.263965 0.962896 -0.056157
vn -0.279353 0.959039 -0.046960
vn -0.291197 0.956070 -0.033678
vn -0.298648 0.954201 -0.017583
vn -0.301201 0.953561 -0.000060
vn -0.298673 0.954195 0.017471
vn -0.291249 0.956058 0.033584
vn -0.279414 0.959025 0.046895
vn -0.264012 0.962885 0.056127
vn -0.246271 0.967330 0.060200
vn -0.227818 0.971952 0.058375
vn -0.210555 0.976276 0.050515
vn -0.196427 0.979813 0.037196
vn -0.187158 0.982132 0.019689
vn -0.183926 0.982940 -0.000082
vn 0.009592 0.996626 -0.081516
vn 0.023154 0.999732 -0.000295
vn 0.854986 0.419437 -0.305075
vn 0.903958 0.427621 -0.000088
vn 0.505869 0.833599 -0.221831
vn 0.504531 0.833335 -0.225835
vn 0.542005 0.840375 -0.000342
vn 0.542005 0.840375 -0.000324
vn -0.028143 0.987700 -0.153809
vn 0.403564 0.812831 -0.420050
vn 0.398854 0.811868 -0.426364
vn 0.713953 0.394695 -0.578348
vn -0.085716 0.973960 -0.209891
vn 0.246204 0.780266 -0.574951
vn 0.237491 0.778462 -0.581029
vn 0.496115 0.355990 -0.791922
vn -0.156875 0.956901 -0.244400
vn 0.050425 0.739372 -0.671407
vn 0.038687 0.736924 -0.674868
vn 0.224751 0.307431 -0.924648
vn -0.209711 0.832284 -0.513151
vn -0.120214 0.483487 -0.867058
vn -0.362423 0.798349 -0.480924
vn -0.381357 0.433491 -0.816487
vn -0.496394 0.768447 -0.403834
vn -0.612373 0.388996 -0.688245
vn -0.600375 0.745053 -0.290596
vn -0.792622 0.353935 -0.496468
vn -0.666323 0.729997 -0.152045
vn -0.907016 0.331309 -0.259918
vn -0.689330 0.724448 -0.000259
vn -0.946407 0.322977 -0.000168
vn -0.667530 0.728906 0.151989
vn -0.907576 0.329805 0.259873
vn -0.602303 0.743034 0.291773
vn -0.793433 0.351090 0.497192
vn -0.498235 0.765794 0.406598
vn -0.612939 0.385111 0.689924
vn -0.363297 0.795457 0.485040
vn -0.381193 0.428994 0.818936
vn -0.209044 0.829511 0.517892
vn -0.119065 0.478818 0.869803
vn -0.155575 0.956385 0.247234
vn 0.053079 0.735349 0.675606
vn 0.041270 0.732866 0.679120
vn 0.225785 0.304414 0.925393
vn -0.083756 0.973712 0.211824
vn 0.249681 0.777023 0.577836
vn 0.240961 0.775179 0.583982
vn 0.497225 0.353385 0.792393
vn -0.026207 0.987633 0.154576
vn 0.406801 0.810575 0.421285
vn 0.402133 0.809578 0.427635
vn 0.714883 0.392784 0.578500
vn 0.010793 0.996631 0.081307
vn 0.507814 0.832449 0.221706
vn 0.506518 0.832166 0.225697
vn 0.855514 0.418425 0.304986
s 1
g pCylinder1
usemtl initialShadingGroup
f 2/2/1 1/1/2 21/21/3
f 3/3/4 2/2/1 21/21/3
f 4/4/5 3/3/4 21/21/3
f 5/5/6 4/4/5 21/21/3
f 6/6/7 5/5/6 21/21/3
f 7/7/8 6/6/7 21/21/3
f 8/8/9 7/7/8 21/21/3
f 9/9/10 8/8/9 21/21/3
f 10/10/11 9/9/10 21/21/3
f 11/11/12 10/10/11 21/21/3
f 12/12/13 11/11/12 21/21/3
f 13/13/14 12/12/13 21/21/3
f 14/14/15 13/13/14 21/21/3
f 15/15/16 14/14/15 21/21/3
f 16/16/17 15/15/16 21/21/3
f 17/17/18 16/16/17 21/21/3
f 18/18/19 17/17/18 21/21/3
f 19/19/20 18/18/19 21/21/3
f 20/20/21 19/19/20 21/21/3
f 1/1/2 20/20/21 21/21/3
s 2
f 1/22/22 2/23/23 27/26/24 23/24/25
f 2/23/23 3/25/26 31/29/27 27/26/24
f 3/27/26 4/28/28 35/31/29 31/29/27
f 4/28/28 5/30/30 39/33/31 35/31/29
f 5/30/30 6/32/32 43/35/33 39/33/31
f 6/32/32 7/34/34 47/37/35 43/35/33
f 7/34/34 8/36/36 51/39/37 47/37/35
f 8/36/36 9/38/38 55/41/39 51/39/37
f 9/38/38 10/40/40 59/43/41 55/41/39
f 10/40/40 11/42/42 63/45/43 59/43/41
f 11/42/42 12/44/44 67/47/45 63/45/43
f 12/44/44 13/46/46 71/49/47 67/47/45
f 13/46/46 14/48/48 75/51/49 71/49/47
f 14/48/48 15/50/50 79/53/51 75/51/49
f 15/50/50 16/52/52 83/55/53 79/53/51
f 16/52/52 17/54/54 87/57/55 83/55/53
f 17/54/54 18/56/56 91/59/57 87/57/55
f 18/56/56 19/58/58 95/61/59 91/59/57
f 19/58/58 20/60/60 99/63/61 95/61/59
f 20/60/60 1/62/22 23/85/25 99/63/61
f 26/83/62 30/64/63 22/84/64
f 30/64/63 34/65/65 22/84/64
f 34/65/65 38/66/66 22/84/64
f 38/66/66 42/67/67 22/84/64
f 42/67/67 46/68/68 22/84/64
f 46/68/68 50/69/69 22/84/64
f 50/69/69 54/70/70 22/84/64
f 54/70/70 58/71/71 22/84/64
f 58/71/71 62/72/72 22/84/64
f 62/72/72 66/73/73 22/84/64
f 66/73/73 70/74/74 22/84/64
f 70/74/74 74/75/75 22/84/64
f 74/75/75 78/76/76 22/84/64
f 78/76/76 82/77/77 22/84/64
f 82/77/77 86/78/78 22/84/64
f 86/78/78 90/79/79 22/84/64
f 90/79/79 94/80/80 22/84/64
f 94/80/80 98/81/81 22/84/64
f 98/81/81 102/82/82 22/84/64
f 102/82/82 26/83/62 22/84/64
f 25/89/83 26/83/62 102/82/82 101/146/84
f 23/85/25 24/87/85 100/145/86 99/63/61
f 24/87/87 25/90/88 101/147/89 100/145/90
f 26/83/62 25/89/83 29/93/91 30/64/63
f 25/88/88 24/86/87 28/91/92 29/92/93
f 24/86/85 23/24/25 27/26/24 28/91/94
f 30/64/63 29/93/91 33/96/95 34/65/65
f 29/92/93 28/91/92 32/94/96 33/95/97
f 28/91/94 27/26/24 31/29/27 32/94/98
f 34/65/65 33/96/95 37/99/99 38/66/66
f 33/95/97 32/94/96 36/97/100 37/98/101
f 32/94/98 31/29/27 35/31/29 36/97/102
f 38/66/66 37/99/99 41/102/103 42/67/67
f 37/98/101 36/97/100 40/100/104 41/101/103
f 36/97/102 35/31/29 39/33/31 40/100/104
f 42/67/67 41/102/103 45/105/105 46/68/68
f 41/101/103 40/100/104 44/103/106 45/104/105
f 40/100/104 39/33/31 43/35/33 44/103/106
f 46/68/68 45/105/105 49/108/107 50/69/69
f 45/104/105 44/103/106 48/106/108 49/107/107
f 44/103/106 43/35/33 47/37/35 48/106/108
f 50/69/69 49/108/107 53/111/109 54/70/70
f 49/107/107 48/106/108 52/109/110 53/110/109
f 48/106/108 47/37/35 51/39/37 52/109/110
f 54/70/70 53/111/109 57/114/111 58/71/71
f 53/110/109 52/109/110 56/112/112 57/113/111
f 52/109/110 51/39/37 55/41/39 56/112/112
f 58/71/71 57/114/111 61/117/113 62/72/72
f 57/113/111 56/112/112 60/115/114 61/116/113
f 56/112/112 55/41/39 59/43/41 60/115/114
f 62/72/72 61/117/113 65/120/115 66/73/73
f 61/116/113 60/115/114 64/118/116 65/119/115
f 60/115/114 59/43/41 63/45/43 64/118/116
f 66/73/73 65/120/115 69/123/117 70/74/74
f 65/119/115 64/118/116 68/121/118 69/122/117
f 64/118/116 63/45/43 67/47/45 68/121/118
f 70/74/74 69/123/117 73/126/119 74/75/75
f 69/122/117 68/121/118 72/124/120 73/125/119
f 68/121/118 67/47/45 71/49/47 72/124/120
f 74/75/75 73/126/119 77/129/121 78/76/76
f 73/125/119 72/124/120 76/127/122 77/128/121
f 72/124/120 71/49/47 75/51/49 76/127/122
f 78/76/76 77/129/121 81/132/123 82/77/77
f 77/128/121 76/127/122 80/130/124 81/131/123
f 76/127/122 75/51/49 79/53/51 80/130/124
f 82/77/77 81/132/123 85/135/125 86/78/78
f 81/131/123 80/130/124 84/133/126 85/134/127
f 80/130/124 79/53/51 83/55/53 84/133/128
f 86/78/78 85/135/125 89/138/129 90/79/79
f 85/134/127 84/133/126 88/136/130 89/137/131
f 84/133/128 83/55/53 87/57/55 88/136/132
f 90/79/79 89/138/129 93/141/133 94/80/80
f 89/137/131 88/136/130 92/139/134 93/140/135
f 88/136/132 87/57/55 91/59/57 92/139/136
f 94/80/80 93/141/133 97/144/137 98/81/81
f 93/140/135 92/139/134 96/142/138 97/143/139
f 92/139/136 91/59/57 95/61/59 96/142/140
f 98/81/81 97/144/137 101/146/84 102/82/82
f 97/143/139 96/142/138 100/145/90 101/147/89
f 96/142/140 95/61/59 99/63/61 100/145/86
